<?xml version="1.0" standalone="no"?>
<!DOCTYPE svg PUBLIC "-//W3C//DTD SVG 20010904//EN"
 "http://www.w3.org/TR/2001/REC-SVG-20010904/DTD/svg10.dtd">
<svg version="1.0" xmlns="http://www.w3.org/2000/svg"
 width="368.000000pt" height="368.000000pt" viewBox="0 0 368.000000 368.000000"
 preserveAspectRatio="xMidYMid meet">
<metadata>
Created by potrace 1.11, written by Peter Selinger 2001-2013
</metadata>
<g transform="translate(0.000000,368.000000) scale(0.100000,-0.100000)"
fill="#000000" stroke="none">
<path d="M2682 2717 c-120 -15 -236 -88 -348 -219 -24 -28 -121 -161 -215
-295 -94 -134 -173 -242 -175 -240 -11 11 -114 431 -109 446 3 10 23 42 45 71
70 94 62 172 -23 210 -39 18 -70 20 -512 20 -527 0 -521 1 -558 -72 -28 -58
-15 -89 75 -176 44 -42 88 -90 98 -107 21 -35 290 -793 290 -818 0 -32 -131
-462 -151 -494 -11 -17 -46 -51 -79 -75 -92 -66 -116 -145 -65 -207 47 -55 60
-56 540 -56 433 0 441 0 488 22 39 18 52 31 68 67 18 41 18 48 5 78 -7 18 -37
55 -64 82 -28 27 -54 61 -57 75 -3 17 19 109 63 256 l68 231 213 277 c118 153
217 280 222 283 5 3 23 -5 40 -17 94 -66 268 -64 378 6 183 115 216 429 61
569 -80 72 -175 99 -298 83z"/>
</g>
</svg>
